<?xml version="1.0" encoding="utf-8" standalone="no"?>
<!DOCTYPE svg PUBLIC "-//W3C//DTD SVG 1.1//EN"
  "http://www.w3.org/Graphics/SVG/1.1/DTD/svg11.dtd">
<!-- Created with matplotlib (https://matplotlib.org/) -->
<svg height="327.490375pt" version="1.1" viewBox="0 0 392.14375 327.490375" width="392.14375pt" xmlns="http://www.w3.org/2000/svg" xmlns:xlink="http://www.w3.org/1999/xlink">
 <metadata>
  <rdf:RDF xmlns:cc="http://creativecommons.org/ns#" xmlns:dc="http://purl.org/dc/elements/1.1/" xmlns:rdf="http://www.w3.org/1999/02/22-rdf-syntax-ns#">
   <cc:Work>
    <dc:type rdf:resource="http://purl.org/dc/dcmitype/StillImage"/>
    <dc:date>2021-08-10T20:47:32.501984</dc:date>
    <dc:format>image/svg+xml</dc:format>
    <dc:creator>
     <cc:Agent>
      <dc:title>Matplotlib v3.3.2, https://matplotlib.org/</dc:title>
     </cc:Agent>
    </dc:creator>
   </cc:Work>
  </rdf:RDF>
 </metadata>
 <defs>
  <style type="text/css">*{stroke-linecap:butt;stroke-linejoin:round;}</style>
 </defs>
 <g id="figure_1">
  <g id="patch_1">
   <path d="M 0 327.490375 
L 392.14375 327.490375 
L 392.14375 0 
L 0 0 
z
" style="fill:none;"/>
  </g>
  <g id="axes_1">
   <g id="patch_2">
    <path d="M 50.14375 289.934125 
L 384.94375 289.934125 
L 384.94375 72.494125 
L 50.14375 72.494125 
z
" style="fill:#ffffff;"/>
   </g>
   <g id="PolyCollection_1">
    <defs>
     <path d="M 92.821514 -75.08804 
L 91.165986 -75.08804 
L 90.92943 -76.218578 
L 90.639642 -77.349116 
L 90.288811 -78.479654 
L 89.869034 -79.610191 
L 89.372571 -80.740729 
L 88.792152 -81.871267 
L 88.121294 -83.001805 
L 87.354639 -84.132343 
L 86.48827 -85.26288 
L 85.52002 -86.393418 
L 84.449717 -87.523956 
L 83.279383 -88.654494 
L 82.013361 -89.785032 
L 80.658364 -90.915569 
L 79.223447 -92.046107 
L 77.719906 -93.176645 
L 76.161114 -94.307183 
L 74.562305 -95.437721 
L 72.940316 -96.568259 
L 71.313311 -97.698796 
L 69.700484 -98.829334 
L 68.121766 -99.959872 
L 66.597526 -101.09041 
L 65.148275 -102.220948 
L 63.794372 -103.351485 
L 62.555712 -104.482023 
L 61.451408 -105.612561 
L 60.499446 -106.743099 
L 59.71631 -107.873637 
L 59.11659 -109.004174 
L 58.71256 -110.134712 
L 58.51375 -111.26525 
L 58.526522 -112.395788 
L 58.753679 -113.526326 
L 59.194129 -114.656864 
L 59.842632 -115.787401 
L 60.68967 -116.917939 
L 61.721453 -118.048477 
L 62.920094 -119.179015 
L 64.263957 -120.309553 
L 65.728194 -121.44009 
L 67.285448 -122.570628 
L 68.906702 -123.701166 
L 70.562249 -124.831704 
L 72.222716 -125.962242 
L 73.860104 -127.09278 
L 75.448773 -128.223317 
L 76.966313 -129.353855 
L 78.394244 -130.484393 
L 79.718505 -131.614931 
L 80.929695 -132.745469 
L 82.023056 -133.876006 
L 82.998205 -135.006544 
L 83.858641 -136.137082 
L 84.61106 -137.26762 
L 85.264553 -138.398158 
L 85.829729 -139.528695 
L 86.317844 -140.659233 
L 86.739994 -141.789771 
L 87.106428 -142.920309 
L 87.426025 -144.050847 
L 87.705953 -145.181385 
L 87.951543 -146.311922 
L 88.16633 -147.44246 
L 88.352287 -148.572998 
L 88.510171 -149.703536 
L 88.639969 -150.834074 
L 88.741379 -151.964611 
L 88.814285 -153.095149 
L 88.85917 -154.225687 
L 88.877451 -155.356225 
L 88.87168 -156.486763 
L 88.845626 -157.6173 
L 88.804212 -158.747838 
L 88.753334 -159.878376 
L 88.699566 -161.008914 
L 88.649794 -162.139452 
L 88.61081 -163.26999 
L 88.588893 -164.400527 
L 88.589429 -165.531065 
L 88.61659 -166.661603 
L 88.673101 -167.792141 
L 88.760114 -168.922679 
L 88.877188 -170.053216 
L 89.022382 -171.183754 
L 89.192441 -172.314292 
L 89.383054 -173.44483 
L 89.589172 -174.575368 
L 89.805335 -175.705906 
L 90.026011 -176.836443 
L 90.245892 -177.966981 
L 90.46016 -179.097519 
L 90.664674 -180.228057 
L 90.856104 -181.358595 
L 91.031993 -182.489132 
L 91.190757 -183.61967 
L 91.331629 -184.750208 
L 91.454568 -185.880746 
L 91.560139 -187.011284 
L 92.427361 -187.011284 
L 92.427361 -187.011284 
L 92.532932 -185.880746 
L 92.655871 -184.750208 
L 92.796743 -183.61967 
L 92.955507 -182.489132 
L 93.131396 -181.358595 
L 93.322826 -180.228057 
L 93.52734 -179.097519 
L 93.741608 -177.966981 
L 93.961489 -176.836443 
L 94.182165 -175.705906 
L 94.398328 -174.575368 
L 94.604446 -173.44483 
L 94.795059 -172.314292 
L 94.965118 -171.183754 
L 95.110312 -170.053216 
L 95.227386 -168.922679 
L 95.314399 -167.792141 
L 95.37091 -166.661603 
L 95.398071 -165.531065 
L 95.398607 -164.400527 
L 95.37669 -163.26999 
L 95.337706 -162.139452 
L 95.287934 -161.008914 
L 95.234166 -159.878376 
L 95.183288 -158.747838 
L 95.141874 -157.6173 
L 95.11582 -156.486763 
L 95.110049 -155.356225 
L 95.12833 -154.225687 
L 95.173215 -153.095149 
L 95.246121 -151.964611 
L 95.347531 -150.834074 
L 95.477329 -149.703536 
L 95.635213 -148.572998 
L 95.82117 -147.44246 
L 96.035957 -146.311922 
L 96.281547 -145.181385 
L 96.561475 -144.050847 
L 96.881072 -142.920309 
L 97.247506 -141.789771 
L 97.669656 -140.659233 
L 98.157771 -139.528695 
L 98.722947 -138.398158 
L 99.37644 -137.26762 
L 100.128859 -136.137082 
L 100.989295 -135.006544 
L 101.964444 -133.876006 
L 103.057805 -132.745469 
L 104.268995 -131.614931 
L 105.593256 -130.484393 
L 107.021187 -129.353855 
L 108.538727 -128.223317 
L 110.127396 -127.09278 
L 111.764784 -125.962242 
L 113.425251 -124.831704 
L 115.080798 -123.701166 
L 116.702052 -122.570628 
L 118.259306 -121.44009 
L 119.723543 -120.309553 
L 121.067406 -119.179015 
L 122.266047 -118.048477 
L 123.29783 -116.917939 
L 124.144868 -115.787401 
L 124.793371 -114.656864 
L 125.233821 -113.526326 
L 125.460978 -112.395788 
L 125.47375 -111.26525 
L 125.27494 -110.134712 
L 124.87091 -109.004174 
L 124.27119 -107.873637 
L 123.488054 -106.743099 
L 122.536092 -105.612561 
L 121.431788 -104.482023 
L 120.193128 -103.351485 
L 118.839225 -102.220948 
L 117.389974 -101.09041 
L 115.865734 -99.959872 
L 114.287016 -98.829334 
L 112.674189 -97.698796 
L 111.047184 -96.568259 
L 109.425195 -95.437721 
L 107.826386 -94.307183 
L 106.267594 -93.176645 
L 104.764053 -92.046107 
L 103.329136 -90.915569 
L 101.974139 -89.785032 
L 100.708117 -88.654494 
L 99.537783 -87.523956 
L 98.46748 -86.393418 
L 97.49923 -85.26288 
L 96.632861 -84.132343 
L 95.866206 -83.001805 
L 95.195348 -81.871267 
L 94.614929 -80.740729 
L 94.118466 -79.610191 
L 93.698689 -78.479654 
L 93.347858 -77.349116 
L 93.05807 -76.218578 
L 92.821514 -75.08804 
z
" id="m43df1476de" style="stroke:#f61067;stroke-width:1.5;"/>
    </defs>
    <g clip-path="url(#peb2b74257b)">
     <use style="fill:#f61067;fill-opacity:0.1;stroke:#f61067;stroke-width:1.5;" x="0" xlink:href="#m43df1476de" y="327.490375"/>
    </g>
   </g>
   <g id="PolyCollection_2">
    <defs>
     <path d="M 177.246579 -57.478066 
L 174.140921 -57.478066 
L 173.770966 -59.083008 
L 173.333066 -60.68795 
L 172.819884 -62.292892 
L 172.224472 -63.897834 
L 171.540576 -65.502776 
L 170.76296 -67.107718 
L 169.887747 -68.71266 
L 168.912747 -70.317602 
L 167.83776 -71.922544 
L 166.664845 -73.527486 
L 165.398512 -75.132428 
L 164.045846 -76.73737 
L 162.616532 -78.342312 
L 161.122777 -79.947254 
L 159.57913 -81.552196 
L 158.002191 -83.157138 
L 156.410228 -84.76208 
L 154.822708 -86.367022 
L 153.259768 -87.971964 
L 151.741636 -89.576906 
L 150.288046 -91.181848 
L 148.91765 -92.78679 
L 147.647465 -94.391732 
L 146.492371 -95.996674 
L 145.464681 -97.601616 
L 144.573784 -99.206559 
L 143.825887 -100.811501 
L 143.223856 -102.416443 
L 142.767144 -104.021385 
L 142.451833 -105.626327 
L 142.27076 -107.231269 
L 142.21375 -108.836211 
L 142.267929 -110.441153 
L 142.418136 -112.046095 
L 142.647411 -113.651037 
L 142.937558 -115.255979 
L 143.269771 -116.860921 
L 143.625308 -118.465863 
L 143.986189 -120.070805 
L 144.335894 -121.675747 
L 144.660035 -123.280689 
L 144.946954 -124.885631 
L 145.188236 -126.490573 
L 145.379076 -128.095515 
L 145.518498 -129.700457 
L 145.609381 -131.305399 
L 145.658304 -132.910341 
L 145.675187 -134.515283 
L 145.672761 -136.120225 
L 145.665881 -137.725167 
L 145.670724 -139.330109 
L 145.703923 -140.935051 
L 145.781674 -142.539993 
L 145.918897 -144.144935 
L 146.128466 -145.749877 
L 146.420593 -147.354819 
L 146.802365 -148.959761 
L 147.277487 -150.564703 
L 147.846216 -152.169645 
L 148.505498 -153.774587 
L 149.249276 -155.379529 
L 150.06895 -156.984472 
L 150.953947 -158.589414 
L 151.89235 -160.194356 
L 152.87155 -161.799298 
L 153.878881 -163.40424 
L 154.902188 -165.009182 
L 155.930299 -166.614124 
L 156.953399 -168.219066 
L 157.963264 -169.824008 
L 158.953378 -171.42895 
L 159.918926 -173.033892 
L 160.856688 -174.638834 
L 161.764842 -176.243776 
L 162.642717 -177.848718 
L 163.490499 -179.45366 
L 164.308942 -181.058602 
L 165.099082 -182.663544 
L 165.861987 -184.268486 
L 166.598554 -185.873428 
L 167.309364 -187.47837 
L 167.994588 -189.083312 
L 168.65396 -190.688254 
L 169.286798 -192.293196 
L 169.892072 -193.898138 
L 170.468499 -195.50308 
L 171.014665 -197.108022 
L 171.529156 -198.712964 
L 172.01068 -200.317906 
L 172.458181 -201.922848 
L 172.870935 -203.52779 
L 173.248614 -205.132732 
L 173.591331 -206.737674 
L 173.899649 -208.342616 
L 174.174568 -209.947558 
L 174.417488 -211.5525 
L 174.630158 -213.157442 
L 174.814606 -214.762384 
L 174.973065 -216.367327 
L 176.414435 -216.367327 
L 176.414435 -216.367327 
L 176.572894 -214.762384 
L 176.757342 -213.157442 
L 176.970012 -211.5525 
L 177.212932 -209.947558 
L 177.487851 -208.342616 
L 177.796169 -206.737674 
L 178.138886 -205.132732 
L 178.516565 -203.52779 
L 178.929319 -201.922848 
L 179.37682 -200.317906 
L 179.858344 -198.712964 
L 180.372835 -197.108022 
L 180.919001 -195.50308 
L 181.495428 -193.898138 
L 182.100702 -192.293196 
L 182.73354 -190.688254 
L 183.392912 -189.083312 
L 184.078136 -187.47837 
L 184.788946 -185.873428 
L 185.525513 -184.268486 
L 186.288418 -182.663544 
L 187.078558 -181.058602 
L 187.897001 -179.45366 
L 188.744783 -177.848718 
L 189.622658 -176.243776 
L 190.530812 -174.638834 
L 191.468574 -173.033892 
L 192.434122 -171.42895 
L 193.424236 -169.824008 
L 194.434101 -168.219066 
L 195.457201 -166.614124 
L 196.485312 -165.009182 
L 197.508619 -163.40424 
L 198.51595 -161.799298 
L 199.49515 -160.194356 
L 200.433553 -158.589414 
L 201.31855 -156.984472 
L 202.138224 -155.379529 
L 202.882002 -153.774587 
L 203.541284 -152.169645 
L 204.110013 -150.564703 
L 204.585135 -148.959761 
L 204.966907 -147.354819 
L 205.259034 -145.749877 
L 205.468603 -144.144935 
L 205.605826 -142.539993 
L 205.683577 -140.935051 
L 205.716776 -139.330109 
L 205.721619 -137.725167 
L 205.714739 -136.120225 
L 205.712313 -134.515283 
L 205.729196 -132.910341 
L 205.778119 -131.305399 
L 205.869002 -129.700457 
L 206.008424 -128.095515 
L 206.199264 -126.490573 
L 206.440546 -124.885631 
L 206.727465 -123.280689 
L 207.051606 -121.675747 
L 207.401311 -120.070805 
L 207.762192 -118.465863 
L 208.117729 -116.860921 
L 208.449942 -115.255979 
L 208.740089 -113.651037 
L 208.969364 -112.046095 
L 209.119571 -110.441153 
L 209.17375 -108.836211 
L 209.11674 -107.231269 
L 208.935667 -105.626327 
L 208.620356 -104.021385 
L 208.163644 -102.416443 
L 207.561613 -100.811501 
L 206.813716 -99.206559 
L 205.922819 -97.601616 
L 204.895129 -95.996674 
L 203.740035 -94.391732 
L 202.46985 -92.78679 
L 201.099454 -91.181848 
L 199.645864 -89.576906 
L 198.127732 -87.971964 
L 196.564792 -86.367022 
L 194.977272 -84.76208 
L 193.385309 -83.157138 
L 191.80837 -81.552196 
L 190.264723 -79.947254 
L 188.770968 -78.342312 
L 187.341654 -76.73737 
L 185.988988 -75.132428 
L 184.722655 -73.527486 
L 183.54974 -71.922544 
L 182.474753 -70.317602 
L 181.499753 -68.71266 
L 180.62454 -67.107718 
L 179.846924 -65.502776 
L 179.163028 -63.897834 
L 178.567616 -62.292892 
L 178.054434 -60.68795 
L 177.616534 -59.083008 
L 177.246579 -57.478066 
z
" id="m38babf5c98" style="stroke:#049b9a;stroke-width:1.5;"/>
    </defs>
    <g clip-path="url(#peb2b74257b)">
     <use style="fill:#049b9a;fill-opacity:0.1;stroke:#049b9a;stroke-width:1.5;" x="0" xlink:href="#m38babf5c98" y="327.490375"/>
    </g>
   </g>
   <g id="PolyCollection_3">
    <defs>
     <path d="M 260.228148 -47.439886 
L 258.559352 -47.439886 
L 258.338785 -49.436581 
L 258.072987 -51.433275 
L 257.756135 -53.429969 
L 257.382416 -55.426663 
L 256.94619 -57.423357 
L 256.442149 -59.420052 
L 255.865482 -61.416746 
L 255.212035 -63.41344 
L 254.478442 -65.410134 
L 253.662257 -67.406829 
L 252.762046 -69.403523 
L 251.777481 -71.400217 
L 250.709412 -73.396911 
L 249.559938 -75.393605 
L 248.332481 -77.3903 
L 247.031872 -79.386994 
L 245.664456 -81.383688 
L 244.238195 -83.380382 
L 242.762791 -85.377076 
L 241.249788 -87.373771 
L 239.712645 -89.370465 
L 238.166745 -91.367159 
L 236.629334 -93.363853 
L 235.119335 -95.360548 
L 233.657041 -97.357242 
L 232.263677 -99.353936 
L 230.960817 -101.35063 
L 229.769698 -103.347324 
L 228.710439 -105.344019 
L 227.80123 -107.340713 
L 227.057524 -109.337407 
L 226.491301 -111.334101 
L 226.110463 -113.330795 
L 225.918395 -115.32749 
L 225.91375 -117.324184 
L 226.090464 -119.320878 
L 226.438027 -121.317572 
L 226.941982 -123.314267 
L 227.584634 -125.310961 
L 228.345924 -127.307655 
L 229.204411 -129.304349 
L 230.138297 -131.301043 
L 231.126433 -133.297738 
L 232.149245 -135.294432 
L 233.189506 -137.291126 
L 234.232936 -139.28782 
L 235.26856 -141.284514 
L 236.288841 -143.281209 
L 237.289561 -145.277903 
L 238.269484 -147.274597 
L 239.229827 -149.271291 
L 240.173585 -151.267986 
L 241.104767 -153.26468 
L 242.027611 -155.261374 
L 242.94583 -157.258068 
L 243.861957 -159.254762 
L 244.776835 -161.251457 
L 245.689285 -163.248151 
L 246.59598 -165.244845 
L 247.49152 -167.241539 
L 248.368707 -169.238233 
L 249.218975 -171.234928 
L 250.032957 -173.231622 
L 250.801123 -175.228316 
L 251.514437 -177.22501 
L 252.165001 -179.221705 
L 252.746612 -181.218399 
L 253.255211 -183.215093 
L 253.689188 -185.211787 
L 254.049525 -187.208481 
L 254.339775 -189.205176 
L 254.565875 -191.20187 
L 254.735826 -193.198564 
L 254.859245 -195.195258 
L 254.946842 -197.191952 
L 255.009847 -199.188647 
L 255.059424 -201.185341 
L 255.106119 -203.182035 
L 255.159367 -205.178729 
L 255.227088 -207.175424 
L 255.315398 -209.172118 
L 255.428435 -211.168812 
L 255.568317 -213.165506 
L 255.735223 -215.1622 
L 255.927565 -217.158895 
L 256.142268 -219.155589 
L 256.375094 -221.152283 
L 256.621008 -223.148977 
L 256.87455 -225.145671 
L 257.130187 -227.142366 
L 257.38263 -229.13906 
L 257.627094 -231.135754 
L 257.859489 -233.132448 
L 258.076544 -235.129143 
L 258.275872 -237.125837 
L 258.455957 -239.122531 
L 258.61611 -241.119225 
L 258.756365 -243.115919 
L 258.87737 -245.112614 
L 259.91013 -245.112614 
L 259.91013 -245.112614 
L 260.031135 -243.115919 
L 260.17139 -241.119225 
L 260.331543 -239.122531 
L 260.511628 -237.125837 
L 260.710956 -235.129143 
L 260.928011 -233.132448 
L 261.160406 -231.135754 
L 261.40487 -229.13906 
L 261.657313 -227.142366 
L 261.91295 -225.145671 
L 262.166492 -223.148977 
L 262.412406 -221.152283 
L 262.645232 -219.155589 
L 262.859935 -217.158895 
L 263.052277 -215.1622 
L 263.219183 -213.165506 
L 263.359065 -211.168812 
L 263.472102 -209.172118 
L 263.560412 -207.175424 
L 263.628133 -205.178729 
L 263.681381 -203.182035 
L 263.728076 -201.185341 
L 263.777653 -199.188647 
L 263.840658 -197.191952 
L 263.928255 -195.195258 
L 264.051674 -193.198564 
L 264.221625 -191.20187 
L 264.447725 -189.205176 
L 264.737975 -187.208481 
L 265.098312 -185.211787 
L 265.532289 -183.215093 
L 266.040888 -181.218399 
L 266.622499 -179.221705 
L 267.273063 -177.22501 
L 267.986377 -175.228316 
L 268.754543 -173.231622 
L 269.568525 -171.234928 
L 270.418793 -169.238233 
L 271.29598 -167.241539 
L 272.19152 -165.244845 
L 273.098215 -163.248151 
L 274.010665 -161.251457 
L 274.925543 -159.254762 
L 275.84167 -157.258068 
L 276.759889 -155.261374 
L 277.682733 -153.26468 
L 278.613915 -151.267986 
L 279.557673 -149.271291 
L 280.518016 -147.274597 
L 281.497939 -145.277903 
L 282.498659 -143.281209 
L 283.51894 -141.284514 
L 284.554564 -139.28782 
L 285.597994 -137.291126 
L 286.638255 -135.294432 
L 287.661067 -133.297738 
L 288.649203 -131.301043 
L 289.583089 -129.304349 
L 290.441576 -127.307655 
L 291.202866 -125.310961 
L 291.845518 -123.314267 
L 292.349473 -121.317572 
L 292.697036 -119.320878 
L 292.87375 -117.324184 
L 292.869105 -115.32749 
L 292.677037 -113.330795 
L 292.296199 -111.334101 
L 291.729976 -109.337407 
L 290.98627 -107.340713 
L 290.077061 -105.344019 
L 289.017802 -103.347324 
L 287.826683 -101.35063 
L 286.523823 -99.353936 
L 285.130459 -97.357242 
L 283.668165 -95.360548 
L 282.158166 -93.363853 
L 280.620755 -91.367159 
L 279.074855 -89.370465 
L 277.537712 -87.373771 
L 276.024709 -85.377076 
L 274.549305 -83.380382 
L 273.123044 -81.383688 
L 271.755628 -79.386994 
L 270.455019 -77.3903 
L 269.227562 -75.393605 
L 268.078088 -73.396911 
L 267.010019 -71.400217 
L 266.025454 -69.403523 
L 265.125243 -67.406829 
L 264.309058 -65.410134 
L 263.575465 -63.41344 
L 262.922018 -61.416746 
L 262.345351 -59.420052 
L 261.84131 -57.423357 
L 261.405084 -55.426663 
L 261.031365 -53.429969 
L 260.714513 -51.433275 
L 260.448715 -49.436581 
L 260.228148 -47.439886 
z
" id="mba8b8fa3e9" style="stroke:#012d98;stroke-width:1.5;"/>
    </defs>
    <g clip-path="url(#peb2b74257b)">
     <use style="fill:#012d98;fill-opacity:0.1;stroke:#012d98;stroke-width:1.5;" x="0" xlink:href="#mba8b8fa3e9" y="327.490375"/>
    </g>
   </g>
   <g id="PolyCollection_4">
    <defs>
     <path d="M 343.856923 -55.486469 
L 342.330577 -55.486469 
L 342.148057 -57.376727 
L 341.931766 -59.266984 
L 341.677852 -61.157242 
L 341.382526 -63.0475 
L 341.042162 -64.937758 
L 340.653409 -66.828016 
L 340.213305 -68.718274 
L 339.719384 -70.608532 
L 339.169774 -72.49879 
L 338.563289 -74.389048 
L 337.899495 -76.279306 
L 337.178763 -78.169564 
L 336.402292 -80.059822 
L 335.572114 -81.95008 
L 334.691072 -83.840338 
L 333.762772 -85.730595 
L 332.791521 -87.620853 
L 331.782236 -89.511111 
L 330.740343 -91.401369 
L 329.671663 -93.291627 
L 328.582289 -95.181885 
L 327.478465 -97.072143 
L 326.366454 -98.962401 
L 325.252434 -100.852659 
L 324.142388 -102.742917 
L 323.042022 -104.633175 
L 321.956707 -106.523433 
L 320.891443 -108.413691 
L 319.850852 -110.303949 
L 318.839202 -112.194206 
L 317.860458 -114.084464 
L 316.918345 -115.974722 
L 316.016441 -117.86498 
L 315.158258 -119.755238 
L 314.347329 -121.645496 
L 313.587275 -123.535754 
L 312.88184 -125.426012 
L 312.234907 -127.31627 
L 311.650456 -129.206528 
L 311.13249 -131.096786 
L 310.684926 -132.987044 
L 310.311441 -134.877302 
L 310.015306 -136.76756 
L 309.799197 -138.657817 
L 309.665021 -140.548075 
L 309.61375 -142.438333 
L 309.645287 -144.328591 
L 309.758377 -146.218849 
L 309.950565 -148.109107 
L 310.218215 -149.999365 
L 310.556581 -151.889623 
L 310.959935 -153.779881 
L 311.421749 -155.670139 
L 311.934912 -157.560397 
L 312.491981 -159.450655 
L 313.085447 -161.340913 
L 313.708005 -163.231171 
L 314.35282 -165.121429 
L 315.01376 -167.011686 
L 315.685603 -168.901944 
L 316.364197 -170.792202 
L 317.046563 -172.68246 
L 317.730943 -174.572718 
L 318.416783 -176.462976 
L 319.104655 -178.353234 
L 319.796122 -180.243492 
L 320.493543 -182.13375 
L 321.19985 -184.024008 
L 321.918279 -185.914266 
L 322.652095 -187.804524 
L 323.404307 -189.694782 
L 324.177411 -191.58504 
L 324.973144 -193.475297 
L 325.792292 -195.365555 
L 326.63455 -197.255813 
L 327.498435 -199.146071 
L 328.38127 -201.036329 
L 329.27923 -202.926587 
L 330.18745 -204.816845 
L 331.10018 -206.707103 
L 332.010995 -208.597361 
L 332.913027 -210.487619 
L 333.799221 -212.377877 
L 334.662588 -214.268135 
L 335.496459 -216.158393 
L 336.294708 -218.048651 
L 337.051944 -219.938908 
L 337.763669 -221.829166 
L 338.426384 -223.719424 
L 339.037649 -225.609682 
L 339.596096 -227.49994 
L 340.101401 -229.390198 
L 340.554209 -231.280456 
L 340.956037 -233.170714 
L 341.309147 -235.060972 
L 341.616405 -236.95123 
L 341.881134 -238.841488 
L 342.106968 -240.731746 
L 342.297712 -242.622004 
L 343.889788 -242.622004 
L 343.889788 -242.622004 
L 344.080532 -240.731746 
L 344.306366 -238.841488 
L 344.571095 -236.95123 
L 344.878353 -235.060972 
L 345.231463 -233.170714 
L 345.633291 -231.280456 
L 346.086099 -229.390198 
L 346.591404 -227.49994 
L 347.149851 -225.609682 
L 347.761116 -223.719424 
L 348.423831 -221.829166 
L 349.135556 -219.938908 
L 349.892792 -218.048651 
L 350.691041 -216.158393 
L 351.524912 -214.268135 
L 352.388279 -212.377877 
L 353.274473 -210.487619 
L 354.176505 -208.597361 
L 355.08732 -206.707103 
L 356.00005 -204.816845 
L 356.90827 -202.926587 
L 357.80623 -201.036329 
L 358.689065 -199.146071 
L 359.55295 -197.255813 
L 360.395208 -195.365555 
L 361.214356 -193.475297 
L 362.010089 -191.58504 
L 362.783193 -189.694782 
L 363.535405 -187.804524 
L 364.269221 -185.914266 
L 364.98765 -184.024008 
L 365.693957 -182.13375 
L 366.391378 -180.243492 
L 367.082845 -178.353234 
L 367.770717 -176.462976 
L 368.456557 -174.572718 
L 369.140937 -172.68246 
L 369.823303 -170.792202 
L 370.501897 -168.901944 
L 371.17374 -167.011686 
L 371.83468 -165.121429 
L 372.479495 -163.231171 
L 373.102053 -161.340913 
L 373.695519 -159.450655 
L 374.252588 -157.560397 
L 374.765751 -155.670139 
L 375.227565 -153.779881 
L 375.630919 -151.889623 
L 375.969285 -149.999365 
L 376.236935 -148.109107 
L 376.429123 -146.218849 
L 376.542213 -144.328591 
L 376.57375 -142.438333 
L 376.522479 -140.548075 
L 376.388303 -138.657817 
L 376.172194 -136.76756 
L 375.876059 -134.877302 
L 375.502574 -132.987044 
L 375.05501 -131.096786 
L 374.537044 -129.206528 
L 373.952593 -127.31627 
L 373.30566 -125.426012 
L 372.600225 -123.535754 
L 371.840171 -121.645496 
L 371.029242 -119.755238 
L 370.171059 -117.86498 
L 369.269155 -115.974722 
L 368.327042 -114.084464 
L 367.348298 -112.194206 
L 366.336648 -110.303949 
L 365.296057 -108.413691 
L 364.230793 -106.523433 
L 363.145478 -104.633175 
L 362.045112 -102.742917 
L 360.935066 -100.852659 
L 359.821046 -98.962401 
L 358.709035 -97.072143 
L 357.605211 -95.181885 
L 356.515837 -93.291627 
L 355.447157 -91.401369 
L 354.405264 -89.511111 
L 353.395979 -87.620853 
L 352.424728 -85.730595 
L 351.496428 -83.840338 
L 350.615386 -81.95008 
L 349.785208 -80.059822 
L 349.008737 -78.169564 
L 348.288005 -76.279306 
L 347.624211 -74.389048 
L 347.017726 -72.49879 
L 346.468116 -70.608532 
L 345.974195 -68.718274 
L 345.534091 -66.828016 
L 345.145338 -64.937758 
L 344.804974 -63.0475 
L 344.509648 -61.157242 
L 344.255734 -59.266984 
L 344.039443 -57.376727 
L 343.856923 -55.486469 
z
" id="m08cc8dc1ca" style="stroke:#a76dfe;stroke-width:1.5;"/>
    </defs>
    <g clip-path="url(#peb2b74257b)">
     <use style="fill:#a76dfe;fill-opacity:0.1;stroke:#a76dfe;stroke-width:1.5;" x="0" xlink:href="#m08cc8dc1ca" y="327.490375"/>
    </g>
   </g>
   <g id="patch_3">
    <path clip-path="url(#peb2b74257b)" d="M 91.99375 1366.653258 
L 91.99375 1366.653258 
L 91.99375 1366.653258 
L 91.99375 1366.653258 
z
" style="fill:#d92d6e;stroke:#303030;stroke-linejoin:miter;stroke-width:0.75;"/>
   </g>
   <g id="patch_4">
    <path clip-path="url(#peb2b74257b)" d="M 91.99375 1366.653258 
L 91.99375 1366.653258 
L 91.99375 1366.653258 
L 91.99375 1366.653258 
z
" style="fill:#178887;stroke:#303030;stroke-linejoin:miter;stroke-width:0.75;"/>
   </g>
   <g id="matplotlib.axis_1">
    <g id="xtick_1">
     <g id="line2d_1">
      <defs>
       <path d="M 0 0 
L 0 3.5 
" id="med6805cb2f" style="stroke:#000000;stroke-width:0.8;"/>
      </defs>
      <g>
       <use style="stroke:#000000;stroke-width:0.8;" x="91.99375" xlink:href="#med6805cb2f" y="289.934125"/>
      </g>
     </g>
     <g id="text_1">
      <!-- HC -->
      <g transform="translate(84.742188 304.532563)scale(0.1 -0.1)">
       <defs>
        <path d="M 9.8125 72.90625 
L 19.671875 72.90625 
L 19.671875 43.015625 
L 55.515625 43.015625 
L 55.515625 72.90625 
L 65.375 72.90625 
L 65.375 0 
L 55.515625 0 
L 55.515625 34.71875 
L 19.671875 34.71875 
L 19.671875 0 
L 9.8125 0 
z
" id="DejaVuSans-72"/>
        <path d="M 64.40625 67.28125 
L 64.40625 56.890625 
Q 59.421875 61.53125 53.78125 63.8125 
Q 48.140625 66.109375 41.796875 66.109375 
Q 29.296875 66.109375 22.65625 58.46875 
Q 16.015625 50.828125 16.015625 36.375 
Q 16.015625 21.96875 22.65625 14.328125 
Q 29.296875 6.6875 41.796875 6.6875 
Q 48.140625 6.6875 53.78125 8.984375 
Q 59.421875 11.28125 64.40625 15.921875 
L 64.40625 5.609375 
Q 59.234375 2.09375 53.4375 0.328125 
Q 47.65625 -1.421875 41.21875 -1.421875 
Q 24.65625 -1.421875 15.125 8.703125 
Q 5.609375 18.84375 5.609375 36.375 
Q 5.609375 53.953125 15.125 64.078125 
Q 24.65625 74.21875 41.21875 74.21875 
Q 47.75 74.21875 53.53125 72.484375 
Q 59.328125 70.75 64.40625 67.28125 
z
" id="DejaVuSans-67"/>
       </defs>
       <use xlink:href="#DejaVuSans-72"/>
       <use x="75.195312" xlink:href="#DejaVuSans-67"/>
      </g>
     </g>
    </g>
    <g id="xtick_2">
     <g id="line2d_2">
      <g>
       <use style="stroke:#000000;stroke-width:0.8;" x="175.69375" xlink:href="#med6805cb2f" y="289.934125"/>
      </g>
     </g>
     <g id="text_2">
      <!-- TP1 -->
      <g transform="translate(166.44375 304.532563)scale(0.1 -0.1)">
       <defs>
        <path d="M -0.296875 72.90625 
L 61.375 72.90625 
L 61.375 64.59375 
L 35.5 64.59375 
L 35.5 0 
L 25.59375 0 
L 25.59375 64.59375 
L -0.296875 64.59375 
z
" id="DejaVuSans-84"/>
        <path d="M 19.671875 64.796875 
L 19.671875 37.40625 
L 32.078125 37.40625 
Q 38.96875 37.40625 42.71875 40.96875 
Q 46.484375 44.53125 46.484375 51.125 
Q 46.484375 57.671875 42.71875 61.234375 
Q 38.96875 64.796875 32.078125 64.796875 
z
M 9.8125 72.90625 
L 32.078125 72.90625 
Q 44.34375 72.90625 50.609375 67.359375 
Q 56.890625 61.8125 56.890625 51.125 
Q 56.890625 40.328125 50.609375 34.8125 
Q 44.34375 29.296875 32.078125 29.296875 
L 19.671875 29.296875 
L 19.671875 0 
L 9.8125 0 
z
" id="DejaVuSans-80"/>
        <path d="M 12.40625 8.296875 
L 28.515625 8.296875 
L 28.515625 63.921875 
L 10.984375 60.40625 
L 10.984375 69.390625 
L 28.421875 72.90625 
L 38.28125 72.90625 
L 38.28125 8.296875 
L 54.390625 8.296875 
L 54.390625 0 
L 12.40625 0 
z
" id="DejaVuSans-49"/>
       </defs>
       <use xlink:href="#DejaVuSans-84"/>
       <use x="61.083984" xlink:href="#DejaVuSans-80"/>
       <use x="121.386719" xlink:href="#DejaVuSans-49"/>
      </g>
     </g>
    </g>
    <g id="xtick_3">
     <g id="line2d_3">
      <g>
       <use style="stroke:#000000;stroke-width:0.8;" x="259.39375" xlink:href="#med6805cb2f" y="289.934125"/>
      </g>
     </g>
     <g id="text_3">
      <!-- TP2 -->
      <g transform="translate(250.14375 304.532563)scale(0.1 -0.1)">
       <defs>
        <path d="M 19.1875 8.296875 
L 53.609375 8.296875 
L 53.609375 0 
L 7.328125 0 
L 7.328125 8.296875 
Q 12.9375 14.109375 22.625 23.890625 
Q 32.328125 33.6875 34.8125 36.53125 
Q 39.546875 41.84375 41.421875 45.53125 
Q 43.3125 49.21875 43.3125 52.78125 
Q 43.3125 58.59375 39.234375 62.25 
Q 35.15625 65.921875 28.609375 65.921875 
Q 23.96875 65.921875 18.8125 64.3125 
Q 13.671875 62.703125 7.8125 59.421875 
L 7.8125 69.390625 
Q 13.765625 71.78125 18.9375 73 
Q 24.125 74.21875 28.421875 74.21875 
Q 39.75 74.21875 46.484375 68.546875 
Q 53.21875 62.890625 53.21875 53.421875 
Q 53.21875 48.921875 51.53125 44.890625 
Q 49.859375 40.875 45.40625 35.40625 
Q 44.1875 33.984375 37.640625 27.21875 
Q 31.109375 20.453125 19.1875 8.296875 
z
" id="DejaVuSans-50"/>
       </defs>
       <use xlink:href="#DejaVuSans-84"/>
       <use x="61.083984" xlink:href="#DejaVuSans-80"/>
       <use x="121.386719" xlink:href="#DejaVuSans-50"/>
      </g>
     </g>
    </g>
    <g id="xtick_4">
     <g id="line2d_4">
      <g>
       <use style="stroke:#000000;stroke-width:0.8;" x="343.09375" xlink:href="#med6805cb2f" y="289.934125"/>
      </g>
     </g>
     <g id="text_4">
      <!-- TP3 -->
      <g transform="translate(333.84375 304.532563)scale(0.1 -0.1)">
       <defs>
        <path d="M 40.578125 39.3125 
Q 47.65625 37.796875 51.625 33 
Q 55.609375 28.21875 55.609375 21.1875 
Q 55.609375 10.40625 48.1875 4.484375 
Q 40.765625 -1.421875 27.09375 -1.421875 
Q 22.515625 -1.421875 17.65625 -0.515625 
Q 12.796875 0.390625 7.625 2.203125 
L 7.625 11.71875 
Q 11.71875 9.328125 16.59375 8.109375 
Q 21.484375 6.890625 26.8125 6.890625 
Q 36.078125 6.890625 40.9375 10.546875 
Q 45.796875 14.203125 45.796875 21.1875 
Q 45.796875 27.640625 41.28125 31.265625 
Q 36.765625 34.90625 28.71875 34.90625 
L 20.21875 34.90625 
L 20.21875 43.015625 
L 29.109375 43.015625 
Q 36.375 43.015625 40.234375 45.921875 
Q 44.09375 48.828125 44.09375 54.296875 
Q 44.09375 59.90625 40.109375 62.90625 
Q 36.140625 65.921875 28.71875 65.921875 
Q 24.65625 65.921875 20.015625 65.03125 
Q 15.375 64.15625 9.8125 62.3125 
L 9.8125 71.09375 
Q 15.4375 72.65625 20.34375 73.4375 
Q 25.25 74.21875 29.59375 74.21875 
Q 40.828125 74.21875 47.359375 69.109375 
Q 53.90625 64.015625 53.90625 55.328125 
Q 53.90625 49.265625 50.4375 45.09375 
Q 46.96875 40.921875 40.578125 39.3125 
z
" id="DejaVuSans-51"/>
       </defs>
       <use xlink:href="#DejaVuSans-84"/>
       <use x="61.083984" xlink:href="#DejaVuSans-80"/>
       <use x="121.386719" xlink:href="#DejaVuSans-51"/>
      </g>
     </g>
    </g>
    <g id="text_5">
     <!-- Time points -->
     <g transform="translate(188.364844 318.210688)scale(0.1 -0.1)">
      <defs>
       <path d="M 9.421875 54.6875 
L 18.40625 54.6875 
L 18.40625 0 
L 9.421875 0 
z
M 9.421875 75.984375 
L 18.40625 75.984375 
L 18.40625 64.59375 
L 9.421875 64.59375 
z
" id="DejaVuSans-105"/>
       <path d="M 52 44.1875 
Q 55.375 50.25 60.0625 53.125 
Q 64.75 56 71.09375 56 
Q 79.640625 56 84.28125 50.015625 
Q 88.921875 44.046875 88.921875 33.015625 
L 88.921875 0 
L 79.890625 0 
L 79.890625 32.71875 
Q 79.890625 40.578125 77.09375 44.375 
Q 74.3125 48.1875 68.609375 48.1875 
Q 61.625 48.1875 57.5625 43.546875 
Q 53.515625 38.921875 53.515625 30.90625 
L 53.515625 0 
L 44.484375 0 
L 44.484375 32.71875 
Q 44.484375 40.625 41.703125 44.40625 
Q 38.921875 48.1875 33.109375 48.1875 
Q 26.21875 48.1875 22.15625 43.53125 
Q 18.109375 38.875 18.109375 30.90625 
L 18.109375 0 
L 9.078125 0 
L 9.078125 54.6875 
L 18.109375 54.6875 
L 18.109375 46.1875 
Q 21.1875 51.21875 25.484375 53.609375 
Q 29.78125 56 35.6875 56 
Q 41.65625 56 45.828125 52.96875 
Q 50 49.953125 52 44.1875 
z
" id="DejaVuSans-109"/>
       <path d="M 56.203125 29.59375 
L 56.203125 25.203125 
L 14.890625 25.203125 
Q 15.484375 15.921875 20.484375 11.0625 
Q 25.484375 6.203125 34.421875 6.203125 
Q 39.59375 6.203125 44.453125 7.46875 
Q 49.3125 8.734375 54.109375 11.28125 
L 54.109375 2.78125 
Q 49.265625 0.734375 44.1875 -0.34375 
Q 39.109375 -1.421875 33.890625 -1.421875 
Q 20.796875 -1.421875 13.15625 6.1875 
Q 5.515625 13.8125 5.515625 26.8125 
Q 5.515625 40.234375 12.765625 48.109375 
Q 20.015625 56 32.328125 56 
Q 43.359375 56 49.78125 48.890625 
Q 56.203125 41.796875 56.203125 29.59375 
z
M 47.21875 32.234375 
Q 47.125 39.59375 43.09375 43.984375 
Q 39.0625 48.390625 32.421875 48.390625 
Q 24.90625 48.390625 20.390625 44.140625 
Q 15.875 39.890625 15.1875 32.171875 
z
" id="DejaVuSans-101"/>
       <path id="DejaVuSans-32"/>
       <path d="M 18.109375 8.203125 
L 18.109375 -20.796875 
L 9.078125 -20.796875 
L 9.078125 54.6875 
L 18.109375 54.6875 
L 18.109375 46.390625 
Q 20.953125 51.265625 25.265625 53.625 
Q 29.59375 56 35.59375 56 
Q 45.5625 56 51.78125 48.09375 
Q 58.015625 40.1875 58.015625 27.296875 
Q 58.015625 14.40625 51.78125 6.484375 
Q 45.5625 -1.421875 35.59375 -1.421875 
Q 29.59375 -1.421875 25.265625 0.953125 
Q 20.953125 3.328125 18.109375 8.203125 
z
M 48.6875 27.296875 
Q 48.6875 37.203125 44.609375 42.84375 
Q 40.53125 48.484375 33.40625 48.484375 
Q 26.265625 48.484375 22.1875 42.84375 
Q 18.109375 37.203125 18.109375 27.296875 
Q 18.109375 17.390625 22.1875 11.75 
Q 26.265625 6.109375 33.40625 6.109375 
Q 40.53125 6.109375 44.609375 11.75 
Q 48.6875 17.390625 48.6875 27.296875 
z
" id="DejaVuSans-112"/>
       <path d="M 30.609375 48.390625 
Q 23.390625 48.390625 19.1875 42.75 
Q 14.984375 37.109375 14.984375 27.296875 
Q 14.984375 17.484375 19.15625 11.84375 
Q 23.34375 6.203125 30.609375 6.203125 
Q 37.796875 6.203125 41.984375 11.859375 
Q 46.1875 17.53125 46.1875 27.296875 
Q 46.1875 37.015625 41.984375 42.703125 
Q 37.796875 48.390625 30.609375 48.390625 
z
M 30.609375 56 
Q 42.328125 56 49.015625 48.375 
Q 55.71875 40.765625 55.71875 27.296875 
Q 55.71875 13.875 49.015625 6.21875 
Q 42.328125 -1.421875 30.609375 -1.421875 
Q 18.84375 -1.421875 12.171875 6.21875 
Q 5.515625 13.875 5.515625 27.296875 
Q 5.515625 40.765625 12.171875 48.375 
Q 18.84375 56 30.609375 56 
z
" id="DejaVuSans-111"/>
       <path d="M 54.890625 33.015625 
L 54.890625 0 
L 45.90625 0 
L 45.90625 32.71875 
Q 45.90625 40.484375 42.875 44.328125 
Q 39.84375 48.1875 33.796875 48.1875 
Q 26.515625 48.1875 22.3125 43.546875 
Q 18.109375 38.921875 18.109375 30.90625 
L 18.109375 0 
L 9.078125 0 
L 9.078125 54.6875 
L 18.109375 54.6875 
L 18.109375 46.1875 
Q 21.34375 51.125 25.703125 53.5625 
Q 30.078125 56 35.796875 56 
Q 45.21875 56 50.046875 50.171875 
Q 54.890625 44.34375 54.890625 33.015625 
z
" id="DejaVuSans-110"/>
       <path d="M 18.3125 70.21875 
L 18.3125 54.6875 
L 36.8125 54.6875 
L 36.8125 47.703125 
L 18.3125 47.703125 
L 18.3125 18.015625 
Q 18.3125 11.328125 20.140625 9.421875 
Q 21.96875 7.515625 27.59375 7.515625 
L 36.8125 7.515625 
L 36.8125 0 
L 27.59375 0 
Q 17.1875 0 13.234375 3.875 
Q 9.28125 7.765625 9.28125 18.015625 
L 9.28125 47.703125 
L 2.6875 47.703125 
L 2.6875 54.6875 
L 9.28125 54.6875 
L 9.28125 70.21875 
z
" id="DejaVuSans-116"/>
       <path d="M 44.28125 53.078125 
L 44.28125 44.578125 
Q 40.484375 46.53125 36.375 47.5 
Q 32.28125 48.484375 27.875 48.484375 
Q 21.1875 48.484375 17.84375 46.4375 
Q 14.5 44.390625 14.5 40.28125 
Q 14.5 37.15625 16.890625 35.375 
Q 19.28125 33.59375 26.515625 31.984375 
L 29.59375 31.296875 
Q 39.15625 29.25 43.1875 25.515625 
Q 47.21875 21.78125 47.21875 15.09375 
Q 47.21875 7.46875 41.1875 3.015625 
Q 35.15625 -1.421875 24.609375 -1.421875 
Q 20.21875 -1.421875 15.453125 -0.5625 
Q 10.6875 0.296875 5.421875 2 
L 5.421875 11.28125 
Q 10.40625 8.6875 15.234375 7.390625 
Q 20.0625 6.109375 24.8125 6.109375 
Q 31.15625 6.109375 34.5625 8.28125 
Q 37.984375 10.453125 37.984375 14.40625 
Q 37.984375 18.0625 35.515625 20.015625 
Q 33.0625 21.96875 24.703125 23.78125 
L 21.578125 24.515625 
Q 13.234375 26.265625 9.515625 29.90625 
Q 5.8125 33.546875 5.8125 39.890625 
Q 5.8125 47.609375 11.28125 51.796875 
Q 16.75 56 26.8125 56 
Q 31.78125 56 36.171875 55.265625 
Q 40.578125 54.546875 44.28125 53.078125 
z
" id="DejaVuSans-115"/>
      </defs>
      <use xlink:href="#DejaVuSans-84"/>
      <use x="57.958984" xlink:href="#DejaVuSans-105"/>
      <use x="85.742188" xlink:href="#DejaVuSans-109"/>
      <use x="183.154297" xlink:href="#DejaVuSans-101"/>
      <use x="244.677734" xlink:href="#DejaVuSans-32"/>
      <use x="276.464844" xlink:href="#DejaVuSans-112"/>
      <use x="339.941406" xlink:href="#DejaVuSans-111"/>
      <use x="401.123047" xlink:href="#DejaVuSans-105"/>
      <use x="428.90625" xlink:href="#DejaVuSans-110"/>
      <use x="492.285156" xlink:href="#DejaVuSans-116"/>
      <use x="531.494141" xlink:href="#DejaVuSans-115"/>
     </g>
    </g>
   </g>
   <g id="matplotlib.axis_2">
    <g id="ytick_1">
     <g id="line2d_5">
      <defs>
       <path d="M 0 0 
L -3.5 0 
" id="m2207a05bb8" style="stroke:#000000;stroke-width:0.8;"/>
      </defs>
      <g>
       <use style="stroke:#000000;stroke-width:0.8;" x="50.14375" xlink:href="#m2207a05bb8" y="264.102026"/>
      </g>
     </g>
     <g id="text_6">
      <!-- 0.29 -->
      <g transform="translate(20.878125 267.901244)scale(0.1 -0.1)">
       <defs>
        <path d="M 31.78125 66.40625 
Q 24.171875 66.40625 20.328125 58.90625 
Q 16.5 51.421875 16.5 36.375 
Q 16.5 21.390625 20.328125 13.890625 
Q 24.171875 6.390625 31.78125 6.390625 
Q 39.453125 6.390625 43.28125 13.890625 
Q 47.125 21.390625 47.125 36.375 
Q 47.125 51.421875 43.28125 58.90625 
Q 39.453125 66.40625 31.78125 66.40625 
z
M 31.78125 74.21875 
Q 44.046875 74.21875 50.515625 64.515625 
Q 56.984375 54.828125 56.984375 36.375 
Q 56.984375 17.96875 50.515625 8.265625 
Q 44.046875 -1.421875 31.78125 -1.421875 
Q 19.53125 -1.421875 13.0625 8.265625 
Q 6.59375 17.96875 6.59375 36.375 
Q 6.59375 54.828125 13.0625 64.515625 
Q 19.53125 74.21875 31.78125 74.21875 
z
" id="DejaVuSans-48"/>
        <path d="M 10.6875 12.40625 
L 21 12.40625 
L 21 0 
L 10.6875 0 
z
" id="DejaVuSans-46"/>
        <path d="M 10.984375 1.515625 
L 10.984375 10.5 
Q 14.703125 8.734375 18.5 7.8125 
Q 22.3125 6.890625 25.984375 6.890625 
Q 35.75 6.890625 40.890625 13.453125 
Q 46.046875 20.015625 46.78125 33.40625 
Q 43.953125 29.203125 39.59375 26.953125 
Q 35.25 24.703125 29.984375 24.703125 
Q 19.046875 24.703125 12.671875 31.3125 
Q 6.296875 37.9375 6.296875 49.421875 
Q 6.296875 60.640625 12.9375 67.421875 
Q 19.578125 74.21875 30.609375 74.21875 
Q 43.265625 74.21875 49.921875 64.515625 
Q 56.59375 54.828125 56.59375 36.375 
Q 56.59375 19.140625 48.40625 8.859375 
Q 40.234375 -1.421875 26.421875 -1.421875 
Q 22.703125 -1.421875 18.890625 -0.6875 
Q 15.09375 0.046875 10.984375 1.515625 
z
M 30.609375 32.421875 
Q 37.25 32.421875 41.125 36.953125 
Q 45.015625 41.5 45.015625 49.421875 
Q 45.015625 57.28125 41.125 61.84375 
Q 37.25 66.40625 30.609375 66.40625 
Q 23.96875 66.40625 20.09375 61.84375 
Q 16.21875 57.28125 16.21875 49.421875 
Q 16.21875 41.5 20.09375 36.953125 
Q 23.96875 32.421875 30.609375 32.421875 
z
" id="DejaVuSans-57"/>
       </defs>
       <use xlink:href="#DejaVuSans-48"/>
       <use x="63.623047" xlink:href="#DejaVuSans-46"/>
       <use x="95.410156" xlink:href="#DejaVuSans-50"/>
       <use x="159.033203" xlink:href="#DejaVuSans-57"/>
      </g>
     </g>
    </g>
    <g id="ytick_2">
     <g id="line2d_6">
      <g>
       <use style="stroke:#000000;stroke-width:0.8;" x="50.14375" xlink:href="#m2207a05bb8" y="226.083018"/>
      </g>
     </g>
     <g id="text_7">
      <!-- 0.30 -->
      <g transform="translate(20.878125 229.882236)scale(0.1 -0.1)">
       <use xlink:href="#DejaVuSans-48"/>
       <use x="63.623047" xlink:href="#DejaVuSans-46"/>
       <use x="95.410156" xlink:href="#DejaVuSans-51"/>
       <use x="159.033203" xlink:href="#DejaVuSans-48"/>
      </g>
     </g>
    </g>
    <g id="ytick_3">
     <g id="line2d_7">
      <g>
       <use style="stroke:#000000;stroke-width:0.8;" x="50.14375" xlink:href="#m2207a05bb8" y="188.06401"/>
      </g>
     </g>
     <g id="text_8">
      <!-- 0.31 -->
      <g transform="translate(20.878125 191.863228)scale(0.1 -0.1)">
       <use xlink:href="#DejaVuSans-48"/>
       <use x="63.623047" xlink:href="#DejaVuSans-46"/>
       <use x="95.410156" xlink:href="#DejaVuSans-51"/>
       <use x="159.033203" xlink:href="#DejaVuSans-49"/>
      </g>
     </g>
    </g>
    <g id="ytick_4">
     <g id="line2d_8">
      <g>
       <use style="stroke:#000000;stroke-width:0.8;" x="50.14375" xlink:href="#m2207a05bb8" y="150.045002"/>
      </g>
     </g>
     <g id="text_9">
      <!-- 0.32 -->
      <g transform="translate(20.878125 153.84422)scale(0.1 -0.1)">
       <use xlink:href="#DejaVuSans-48"/>
       <use x="63.623047" xlink:href="#DejaVuSans-46"/>
       <use x="95.410156" xlink:href="#DejaVuSans-51"/>
       <use x="159.033203" xlink:href="#DejaVuSans-50"/>
      </g>
     </g>
    </g>
    <g id="ytick_5">
     <g id="line2d_9">
      <g>
       <use style="stroke:#000000;stroke-width:0.8;" x="50.14375" xlink:href="#m2207a05bb8" y="112.025994"/>
      </g>
     </g>
     <g id="text_10">
      <!-- 0.33 -->
      <g transform="translate(20.878125 115.825212)scale(0.1 -0.1)">
       <use xlink:href="#DejaVuSans-48"/>
       <use x="63.623047" xlink:href="#DejaVuSans-46"/>
       <use x="95.410156" xlink:href="#DejaVuSans-51"/>
       <use x="159.033203" xlink:href="#DejaVuSans-51"/>
      </g>
     </g>
    </g>
    <g id="ytick_6">
     <g id="line2d_10">
      <g>
       <use style="stroke:#000000;stroke-width:0.8;" x="50.14375" xlink:href="#m2207a05bb8" y="74.006986"/>
      </g>
     </g>
     <g id="text_11">
      <!-- 0.34 -->
      <g transform="translate(20.878125 77.806204)scale(0.1 -0.1)">
       <defs>
        <path d="M 37.796875 64.3125 
L 12.890625 25.390625 
L 37.796875 25.390625 
z
M 35.203125 72.90625 
L 47.609375 72.90625 
L 47.609375 25.390625 
L 58.015625 25.390625 
L 58.015625 17.1875 
L 47.609375 17.1875 
L 47.609375 0 
L 37.796875 0 
L 37.796875 17.1875 
L 4.890625 17.1875 
L 4.890625 26.703125 
z
" id="DejaVuSans-52"/>
       </defs>
       <use xlink:href="#DejaVuSans-48"/>
       <use x="63.623047" xlink:href="#DejaVuSans-46"/>
       <use x="95.410156" xlink:href="#DejaVuSans-51"/>
       <use x="159.033203" xlink:href="#DejaVuSans-52"/>
      </g>
     </g>
    </g>
    <g id="text_12">
     <!-- Global Efficiency -->
     <g transform="translate(14.798438 222.914125)rotate(-90)scale(0.1 -0.1)">
      <defs>
       <path d="M 59.515625 10.40625 
L 59.515625 29.984375 
L 43.40625 29.984375 
L 43.40625 38.09375 
L 69.28125 38.09375 
L 69.28125 6.78125 
Q 63.578125 2.734375 56.6875 0.65625 
Q 49.8125 -1.421875 42 -1.421875 
Q 24.90625 -1.421875 15.25 8.5625 
Q 5.609375 18.5625 5.609375 36.375 
Q 5.609375 54.25 15.25 64.234375 
Q 24.90625 74.21875 42 74.21875 
Q 49.125 74.21875 55.546875 72.453125 
Q 61.96875 70.703125 67.390625 67.28125 
L 67.390625 56.78125 
Q 61.921875 61.421875 55.765625 63.765625 
Q 49.609375 66.109375 42.828125 66.109375 
Q 29.4375 66.109375 22.71875 58.640625 
Q 16.015625 51.171875 16.015625 36.375 
Q 16.015625 21.625 22.71875 14.15625 
Q 29.4375 6.6875 42.828125 6.6875 
Q 48.046875 6.6875 52.140625 7.59375 
Q 56.25 8.5 59.515625 10.40625 
z
" id="DejaVuSans-71"/>
       <path d="M 9.421875 75.984375 
L 18.40625 75.984375 
L 18.40625 0 
L 9.421875 0 
z
" id="DejaVuSans-108"/>
       <path d="M 48.6875 27.296875 
Q 48.6875 37.203125 44.609375 42.84375 
Q 40.53125 48.484375 33.40625 48.484375 
Q 26.265625 48.484375 22.1875 42.84375 
Q 18.109375 37.203125 18.109375 27.296875 
Q 18.109375 17.390625 22.1875 11.75 
Q 26.265625 6.109375 33.40625 6.109375 
Q 40.53125 6.109375 44.609375 11.75 
Q 48.6875 17.390625 48.6875 27.296875 
z
M 18.109375 46.390625 
Q 20.953125 51.265625 25.265625 53.625 
Q 29.59375 56 35.59375 56 
Q 45.5625 56 51.78125 48.09375 
Q 58.015625 40.1875 58.015625 27.296875 
Q 58.015625 14.40625 51.78125 6.484375 
Q 45.5625 -1.421875 35.59375 -1.421875 
Q 29.59375 -1.421875 25.265625 0.953125 
Q 20.953125 3.328125 18.109375 8.203125 
L 18.109375 0 
L 9.078125 0 
L 9.078125 75.984375 
L 18.109375 75.984375 
z
" id="DejaVuSans-98"/>
       <path d="M 34.28125 27.484375 
Q 23.390625 27.484375 19.1875 25 
Q 14.984375 22.515625 14.984375 16.5 
Q 14.984375 11.71875 18.140625 8.90625 
Q 21.296875 6.109375 26.703125 6.109375 
Q 34.1875 6.109375 38.703125 11.40625 
Q 43.21875 16.703125 43.21875 25.484375 
L 43.21875 27.484375 
z
M 52.203125 31.203125 
L 52.203125 0 
L 43.21875 0 
L 43.21875 8.296875 
Q 40.140625 3.328125 35.546875 0.953125 
Q 30.953125 -1.421875 24.3125 -1.421875 
Q 15.921875 -1.421875 10.953125 3.296875 
Q 6 8.015625 6 15.921875 
Q 6 25.140625 12.171875 29.828125 
Q 18.359375 34.515625 30.609375 34.515625 
L 43.21875 34.515625 
L 43.21875 35.40625 
Q 43.21875 41.609375 39.140625 45 
Q 35.0625 48.390625 27.6875 48.390625 
Q 23 48.390625 18.546875 47.265625 
Q 14.109375 46.140625 10.015625 43.890625 
L 10.015625 52.203125 
Q 14.9375 54.109375 19.578125 55.046875 
Q 24.21875 56 28.609375 56 
Q 40.484375 56 46.34375 49.84375 
Q 52.203125 43.703125 52.203125 31.203125 
z
" id="DejaVuSans-97"/>
       <path d="M 9.8125 72.90625 
L 55.90625 72.90625 
L 55.90625 64.59375 
L 19.671875 64.59375 
L 19.671875 43.015625 
L 54.390625 43.015625 
L 54.390625 34.71875 
L 19.671875 34.71875 
L 19.671875 8.296875 
L 56.78125 8.296875 
L 56.78125 0 
L 9.8125 0 
z
" id="DejaVuSans-69"/>
       <path d="M 37.109375 75.984375 
L 37.109375 68.5 
L 28.515625 68.5 
Q 23.6875 68.5 21.796875 66.546875 
Q 19.921875 64.59375 19.921875 59.515625 
L 19.921875 54.6875 
L 34.71875 54.6875 
L 34.71875 47.703125 
L 19.921875 47.703125 
L 19.921875 0 
L 10.890625 0 
L 10.890625 47.703125 
L 2.296875 47.703125 
L 2.296875 54.6875 
L 10.890625 54.6875 
L 10.890625 58.5 
Q 10.890625 67.625 15.140625 71.796875 
Q 19.390625 75.984375 28.609375 75.984375 
z
" id="DejaVuSans-102"/>
       <path d="M 48.78125 52.59375 
L 48.78125 44.1875 
Q 44.96875 46.296875 41.140625 47.34375 
Q 37.3125 48.390625 33.40625 48.390625 
Q 24.65625 48.390625 19.8125 42.84375 
Q 14.984375 37.3125 14.984375 27.296875 
Q 14.984375 17.28125 19.8125 11.734375 
Q 24.65625 6.203125 33.40625 6.203125 
Q 37.3125 6.203125 41.140625 7.25 
Q 44.96875 8.296875 48.78125 10.40625 
L 48.78125 2.09375 
Q 45.015625 0.34375 40.984375 -0.53125 
Q 36.96875 -1.421875 32.421875 -1.421875 
Q 20.0625 -1.421875 12.78125 6.34375 
Q 5.515625 14.109375 5.515625 27.296875 
Q 5.515625 40.671875 12.859375 48.328125 
Q 20.21875 56 33.015625 56 
Q 37.15625 56 41.109375 55.140625 
Q 45.0625 54.296875 48.78125 52.59375 
z
" id="DejaVuSans-99"/>
       <path d="M 32.171875 -5.078125 
Q 28.375 -14.84375 24.75 -17.8125 
Q 21.140625 -20.796875 15.09375 -20.796875 
L 7.90625 -20.796875 
L 7.90625 -13.28125 
L 13.1875 -13.28125 
Q 16.890625 -13.28125 18.9375 -11.515625 
Q 21 -9.765625 23.484375 -3.21875 
L 25.09375 0.875 
L 2.984375 54.6875 
L 12.5 54.6875 
L 29.59375 11.921875 
L 46.6875 54.6875 
L 56.203125 54.6875 
z
" id="DejaVuSans-121"/>
      </defs>
      <use xlink:href="#DejaVuSans-71"/>
      <use x="77.490234" xlink:href="#DejaVuSans-108"/>
      <use x="105.273438" xlink:href="#DejaVuSans-111"/>
      <use x="166.455078" xlink:href="#DejaVuSans-98"/>
      <use x="229.931641" xlink:href="#DejaVuSans-97"/>
      <use x="291.210938" xlink:href="#DejaVuSans-108"/>
      <use x="318.994141" xlink:href="#DejaVuSans-32"/>
      <use x="350.78125" xlink:href="#DejaVuSans-69"/>
      <use x="413.964844" xlink:href="#DejaVuSans-102"/>
      <use x="449.169922" xlink:href="#DejaVuSans-102"/>
      <use x="484.375" xlink:href="#DejaVuSans-105"/>
      <use x="512.158203" xlink:href="#DejaVuSans-99"/>
      <use x="567.138672" xlink:href="#DejaVuSans-105"/>
      <use x="594.921875" xlink:href="#DejaVuSans-101"/>
      <use x="656.445312" xlink:href="#DejaVuSans-110"/>
      <use x="719.824219" xlink:href="#DejaVuSans-99"/>
      <use x="774.804688" xlink:href="#DejaVuSans-121"/>
     </g>
    </g>
   </g>
   <g id="PathCollection_1">
    <defs>
     <path d="M 0 2.5 
C 0.663008 2.5 1.29895 2.236584 1.767767 1.767767 
C 2.236584 1.29895 2.5 0.663008 2.5 -0 
C 2.5 -0.663008 2.236584 -1.29895 1.767767 -1.767767 
C 1.29895 -2.236584 0.663008 -2.5 0 -2.5 
C -0.663008 -2.5 -1.29895 -2.236584 -1.767767 -1.767767 
C -2.236584 -1.29895 -2.5 -0.663008 -2.5 0 
C -2.5 0.663008 -2.236584 1.29895 -1.767767 1.767767 
C -1.29895 2.236584 -0.663008 2.5 0 2.5 
z
" id="C0_0_6be4996814"/>
    </defs>
    <g clip-path="url(#peb2b74257b)">
     <use style="fill-opacity:0.1;" x="91.729276" xlink:href="#C0_0_6be4996814" y="207.066807"/>
    </g>
    <g clip-path="url(#peb2b74257b)">
     <use style="fill-opacity:0.1;" x="97.437689" xlink:href="#C0_0_6be4996814" y="232.218997"/>
    </g>
    <g clip-path="url(#peb2b74257b)">
     <use style="fill-opacity:0.1;" x="95.496223" xlink:href="#C0_0_6be4996814" y="217.548901"/>
    </g>
    <g clip-path="url(#peb2b74257b)">
     <use style="fill-opacity:0.1;" x="93.555055" xlink:href="#C0_0_6be4996814" y="228.620648"/>
    </g>
    <g clip-path="url(#peb2b74257b)">
     <use style="fill-opacity:0.1;" x="90.758758" xlink:href="#C0_0_6be4996814" y="204.553022"/>
    </g>
    <g clip-path="url(#peb2b74257b)">
     <use style="fill-opacity:0.1;" x="84.378709" xlink:href="#C0_0_6be4996814" y="217.007955"/>
    </g>
    <g clip-path="url(#peb2b74257b)">
     <use style="fill-opacity:0.1;" x="85.862583" xlink:href="#C0_0_6be4996814" y="225.77806"/>
    </g>
    <g clip-path="url(#peb2b74257b)">
     <use style="fill-opacity:0.1;" x="94.418754" xlink:href="#C0_0_6be4996814" y="214.78568"/>
    </g>
    <g clip-path="url(#peb2b74257b)">
     <use style="fill-opacity:0.1;" x="93.320673" xlink:href="#C0_0_6be4996814" y="204.94809"/>
    </g>
    <g clip-path="url(#peb2b74257b)">
     <use style="fill-opacity:0.1;" x="87.050882" xlink:href="#C0_0_6be4996814" y="220.63465"/>
    </g>
    <g clip-path="url(#peb2b74257b)">
     <use style="fill-opacity:0.1;" x="95.55623" xlink:href="#C0_0_6be4996814" y="215.216451"/>
    </g>
    <g clip-path="url(#peb2b74257b)">
     <use style="fill-opacity:0.1;" x="95.64187" xlink:href="#C0_0_6be4996814" y="210.704898"/>
    </g>
    <g clip-path="url(#peb2b74257b)">
     <use style="fill-opacity:0.1;" x="97.100119" xlink:href="#C0_0_6be4996814" y="160.662429"/>
    </g>
    <g clip-path="url(#peb2b74257b)">
     <use style="fill-opacity:0.1;" x="100.000541" xlink:href="#C0_0_6be4996814" y="185.178867"/>
    </g>
    <g clip-path="url(#peb2b74257b)">
     <use style="fill-opacity:0.1;" x="96.635922" xlink:href="#C0_0_6be4996814" y="223.344444"/>
    </g>
    <g clip-path="url(#peb2b74257b)">
     <use style="fill-opacity:0.1;" x="98.174912" xlink:href="#C0_0_6be4996814" y="209.819583"/>
    </g>
   </g>
   <g id="PathCollection_2">
    <defs>
     <path d="M 0 2.5 
C 0.663008 2.5 1.29895 2.236584 1.767767 1.767767 
C 2.236584 1.29895 2.5 0.663008 2.5 -0 
C 2.5 -0.663008 2.236584 -1.29895 1.767767 -1.767767 
C 1.29895 -2.236584 0.663008 -2.5 0 -2.5 
C -0.663008 -2.5 -1.29895 -2.236584 -1.767767 -1.767767 
C -2.236584 -1.29895 -2.5 -0.663008 -2.5 0 
C -2.5 0.663008 -2.236584 1.29895 -1.767767 1.767767 
C -1.29895 2.236584 -0.663008 2.5 0 2.5 
z
" id="C1_0_8e3978c03d"/>
    </defs>
    <g clip-path="url(#peb2b74257b)">
     <use style="fill-opacity:0.1;" x="168.221617" xlink:href="#C1_0_8e3978c03d" y="231.108173"/>
    </g>
    <g clip-path="url(#peb2b74257b)">
     <use style="fill-opacity:0.1;" x="178.545743" xlink:href="#C1_0_8e3978c03d" y="208.918212"/>
    </g>
    <g clip-path="url(#peb2b74257b)">
     <use style="fill-opacity:0.1;" x="180.021892" xlink:href="#C1_0_8e3978c03d" y="208.400467"/>
    </g>
    <g clip-path="url(#peb2b74257b)">
     <use style="fill-opacity:0.1;" x="169.326846" xlink:href="#C1_0_8e3978c03d" y="173.586406"/>
    </g>
    <g clip-path="url(#peb2b74257b)">
     <use style="fill-opacity:0.1;" x="181.714984" xlink:href="#C1_0_8e3978c03d" y="178.366752"/>
    </g>
    <g clip-path="url(#peb2b74257b)">
     <use style="fill-opacity:0.1;" x="171.685643" xlink:href="#C1_0_8e3978c03d" y="236.796411"/>
    </g>
    <g clip-path="url(#peb2b74257b)">
     <use style="fill-opacity:0.1;" x="181.887427" xlink:href="#C1_0_8e3978c03d" y="186.604607"/>
    </g>
    <g clip-path="url(#peb2b74257b)">
     <use style="fill-opacity:0.1;" x="171.873949" xlink:href="#C1_0_8e3978c03d" y="231.297485"/>
    </g>
    <g clip-path="url(#peb2b74257b)">
     <use style="fill-opacity:0.1;" x="179.333351" xlink:href="#C1_0_8e3978c03d" y="182.240305"/>
    </g>
    <g clip-path="url(#peb2b74257b)">
     <use style="fill-opacity:0.1;" x="171.245558" xlink:href="#C1_0_8e3978c03d" y="214.917802"/>
    </g>
    <g clip-path="url(#peb2b74257b)">
     <use style="fill-opacity:0.1;" x="170.169939" xlink:href="#C1_0_8e3978c03d" y="183.320929"/>
    </g>
    <g clip-path="url(#peb2b74257b)">
     <use style="fill-opacity:0.1;" x="169.815046" xlink:href="#C1_0_8e3978c03d" y="160.006584"/>
    </g>
    <g clip-path="url(#peb2b74257b)">
     <use style="fill-opacity:0.1;" x="183.249814" xlink:href="#C1_0_8e3978c03d" y="228.572957"/>
    </g>
    <g clip-path="url(#peb2b74257b)">
     <use style="fill-opacity:0.1;" x="169.277102" xlink:href="#C1_0_8e3978c03d" y="144.338947"/>
    </g>
    <g clip-path="url(#peb2b74257b)">
     <use style="fill-opacity:0.1;" x="180.210556" xlink:href="#C1_0_8e3978c03d" y="217.16907"/>
    </g>
   </g>
   <g id="PathCollection_3">
    <defs>
     <path d="M 0 2.5 
C 0.663008 2.5 1.29895 2.236584 1.767767 1.767767 
C 2.236584 1.29895 2.5 0.663008 2.5 -0 
C 2.5 -0.663008 2.236584 -1.29895 1.767767 -1.767767 
C 1.29895 -2.236584 0.663008 -2.5 0 -2.5 
C -0.663008 -2.5 -1.29895 -2.236584 -1.767767 -1.767767 
C -2.236584 -1.29895 -2.5 -0.663008 -2.5 0 
C -2.5 0.663008 -2.236584 1.29895 -1.767767 1.767767 
C -1.29895 2.236584 -0.663008 2.5 0 2.5 
z
" id="C2_0_8db37dbc64"/>
    </defs>
    <g clip-path="url(#peb2b74257b)">
     <use style="fill-opacity:0.1;" x="252.69845" xlink:href="#C2_0_8db37dbc64" y="177.216582"/>
    </g>
    <g clip-path="url(#peb2b74257b)">
     <use style="fill-opacity:0.1;" x="257.100956" xlink:href="#C2_0_8db37dbc64" y="218.77925"/>
    </g>
    <g clip-path="url(#peb2b74257b)">
     <use style="fill-opacity:0.1;" x="253.329312" xlink:href="#C2_0_8db37dbc64" y="201.004679"/>
    </g>
    <g clip-path="url(#peb2b74257b)">
     <use style="fill-opacity:0.1;" x="261.824333" xlink:href="#C2_0_8db37dbc64" y="217.159307"/>
    </g>
    <g clip-path="url(#peb2b74257b)">
     <use style="fill-opacity:0.1;" x="261.451297" xlink:href="#C2_0_8db37dbc64" y="212.971616"/>
    </g>
    <g clip-path="url(#peb2b74257b)">
     <use style="fill-opacity:0.1;" x="265.918346" xlink:href="#C2_0_8db37dbc64" y="222.822415"/>
    </g>
    <g clip-path="url(#peb2b74257b)">
     <use style="fill-opacity:0.1;" x="251.750243" xlink:href="#C2_0_8db37dbc64" y="196.528302"/>
    </g>
    <g clip-path="url(#peb2b74257b)">
     <use style="fill-opacity:0.1;" x="258.004909" xlink:href="#C2_0_8db37dbc64" y="236.776136"/>
    </g>
    <g clip-path="url(#peb2b74257b)">
     <use style="fill-opacity:0.1;" x="257.895973" xlink:href="#C2_0_8db37dbc64" y="208.89697"/>
    </g>
    <g clip-path="url(#peb2b74257b)">
     <use style="fill-opacity:0.1;" x="266.873169" xlink:href="#C2_0_8db37dbc64" y="165.115106"/>
    </g>
    <g clip-path="url(#peb2b74257b)">
     <use style="fill-opacity:0.1;" x="254.098528" xlink:href="#C2_0_8db37dbc64" y="193.298638"/>
    </g>
    <g clip-path="url(#peb2b74257b)">
     <use style="fill-opacity:0.1;" x="262.884309" xlink:href="#C2_0_8db37dbc64" y="119.314811"/>
    </g>
    <g clip-path="url(#peb2b74257b)">
     <use style="fill-opacity:0.1;" x="257.31516" xlink:href="#C2_0_8db37dbc64" y="243.113439"/>
    </g>
    <g clip-path="url(#peb2b74257b)">
     <use style="fill-opacity:0.1;" x="263.595173" xlink:href="#C2_0_8db37dbc64" y="168.801918"/>
    </g>
    <g clip-path="url(#peb2b74257b)">
     <use style="fill-opacity:0.1;" x="264.931378" xlink:href="#C2_0_8db37dbc64" y="214.274971"/>
    </g>
   </g>
   <g id="PathCollection_4">
    <defs>
     <path d="M 0 2.5 
C 0.663008 2.5 1.29895 2.236584 1.767767 1.767767 
C 2.236584 1.29895 2.5 0.663008 2.5 -0 
C 2.5 -0.663008 2.236584 -1.29895 1.767767 -1.767767 
C 1.29895 -2.236584 0.663008 -2.5 0 -2.5 
C -0.663008 -2.5 -1.29895 -2.236584 -1.767767 -1.767767 
C -2.236584 -1.29895 -2.5 -0.663008 -2.5 0 
C -2.5 0.663008 -2.236584 1.29895 -1.767767 1.767767 
C -1.29895 2.236584 -0.663008 2.5 0 2.5 
z
" id="C3_0_44ab4bb251"/>
    </defs>
    <g clip-path="url(#peb2b74257b)">
     <use style="fill-opacity:0.1;" x="339.933079" xlink:href="#C3_0_44ab4bb251" y="169.474363"/>
    </g>
    <g clip-path="url(#peb2b74257b)">
     <use style="fill-opacity:0.1;" x="336.881178" xlink:href="#C3_0_44ab4bb251" y="234.408155"/>
    </g>
    <g clip-path="url(#peb2b74257b)">
     <use style="fill-opacity:0.1;" x="336.302514" xlink:href="#C3_0_44ab4bb251" y="211.738777"/>
    </g>
    <g clip-path="url(#peb2b74257b)">
     <use style="fill-opacity:0.1;" x="335.489732" xlink:href="#C3_0_44ab4bb251" y="190.345902"/>
    </g>
    <g clip-path="url(#peb2b74257b)">
     <use style="fill-opacity:0.1;" x="336.131557" xlink:href="#C3_0_44ab4bb251" y="155.155076"/>
    </g>
    <g clip-path="url(#peb2b74257b)">
     <use style="fill-opacity:0.1;" x="348.881243" xlink:href="#C3_0_44ab4bb251" y="179.847105"/>
    </g>
    <g clip-path="url(#peb2b74257b)">
     <use style="fill-opacity:0.1;" x="342.451722" xlink:href="#C3_0_44ab4bb251" y="219.491459"/>
    </g>
    <g clip-path="url(#peb2b74257b)">
     <use style="fill-opacity:0.1;" x="339.302767" xlink:href="#C3_0_44ab4bb251" y="161.945857"/>
    </g>
    <g clip-path="url(#peb2b74257b)">
     <use style="fill-opacity:0.1;" x="345.71456" xlink:href="#C3_0_44ab4bb251" y="195.45878"/>
    </g>
    <g clip-path="url(#peb2b74257b)">
     <use style="fill-opacity:0.1;" x="339.329579" xlink:href="#C3_0_44ab4bb251" y="122.464122"/>
    </g>
    <g clip-path="url(#peb2b74257b)">
     <use style="fill-opacity:0.1;" x="340.020871" xlink:href="#C3_0_44ab4bb251" y="141.560099"/>
    </g>
    <g clip-path="url(#peb2b74257b)">
     <use style="fill-opacity:0.1;" x="348.998886" xlink:href="#C3_0_44ab4bb251" y="209.051022"/>
    </g>
    <g clip-path="url(#peb2b74257b)">
     <use style="fill-opacity:0.1;" x="347.734023" xlink:href="#C3_0_44ab4bb251" y="177.212656"/>
    </g>
    <g clip-path="url(#peb2b74257b)">
     <use style="fill-opacity:0.1;" x="338.445988" xlink:href="#C3_0_44ab4bb251" y="135.793271"/>
    </g>
    <g clip-path="url(#peb2b74257b)">
     <use style="fill-opacity:0.1;" x="347.476772" xlink:href="#C3_0_44ab4bb251" y="189.790956"/>
    </g>
   </g>
   <g id="line2d_11">
    <path d="M 259.39375 65.970925 
L 259.39375 61.622125 
L 343.09375 61.622125 
L 343.09375 65.970925 
" style="fill:none;stroke:#333333;stroke-linecap:square;stroke-width:1.5;"/>
   </g>
   <g id="line2d_12">
    <path d="M 175.69375 44.098925 
L 175.69375 39.750125 
L 343.09375 39.750125 
L 343.09375 44.098925 
" style="fill:none;stroke:#333333;stroke-linecap:square;stroke-width:1.5;"/>
   </g>
   <g id="line2d_13">
    <path d="M 91.99375 22.226925 
L 91.99375 17.878125 
L 343.09375 17.878125 
L 343.09375 22.226925 
" style="fill:none;stroke:#333333;stroke-linecap:square;stroke-width:1.5;"/>
   </g>
   <g id="patch_5">
    <path d="M 50.14375 289.934125 
L 50.14375 72.494125 
" style="fill:none;stroke:#000000;stroke-linecap:square;stroke-linejoin:miter;stroke-width:0.8;"/>
   </g>
   <g id="patch_6">
    <path d="M 384.94375 289.934125 
L 384.94375 72.494125 
" style="fill:none;stroke:#000000;stroke-linecap:square;stroke-linejoin:miter;stroke-width:0.8;"/>
   </g>
   <g id="patch_7">
    <path d="M 50.14375 289.934125 
L 384.94375 289.934125 
" style="fill:none;stroke:#000000;stroke-linecap:square;stroke-linejoin:miter;stroke-width:0.8;"/>
   </g>
   <g id="patch_8">
    <path d="M 50.14375 72.494125 
L 384.94375 72.494125 
" style="fill:none;stroke:#000000;stroke-linecap:square;stroke-linejoin:miter;stroke-width:0.8;"/>
   </g>
   <g id="text_13">
    <!-- ** -->
    <g transform="translate(296.24375 58.542438)scale(0.1 -0.1)">
     <defs>
      <path d="M 47.015625 60.890625 
L 29.5 51.421875 
L 47.015625 41.890625 
L 44.1875 37.109375 
L 27.78125 47.015625 
L 27.78125 28.609375 
L 22.21875 28.609375 
L 22.21875 47.015625 
L 5.8125 37.109375 
L 2.984375 41.890625 
L 20.515625 51.421875 
L 2.984375 60.890625 
L 5.8125 65.71875 
L 22.21875 55.8125 
L 22.21875 74.21875 
L 27.78125 74.21875 
L 27.78125 55.8125 
L 44.1875 65.71875 
z
" id="DejaVuSans-42"/>
     </defs>
     <use xlink:href="#DejaVuSans-42"/>
     <use x="50" xlink:href="#DejaVuSans-42"/>
    </g>
   </g>
   <g id="text_14">
    <!-- ** -->
    <g transform="translate(254.39375 36.670437)scale(0.1 -0.1)">
     <use xlink:href="#DejaVuSans-42"/>
     <use x="50" xlink:href="#DejaVuSans-42"/>
    </g>
   </g>
   <g id="text_15">
    <!-- ** -->
    <g transform="translate(212.54375 14.798437)scale(0.1 -0.1)">
     <use xlink:href="#DejaVuSans-42"/>
     <use x="50" xlink:href="#DejaVuSans-42"/>
    </g>
   </g>
   <g id="patch_9">
    <path clip-path="url(#peb2b74257b)" d="M 89.90125 221.312099 
L 94.08625 221.312099 
L 94.08625 206.537128 
L 89.90125 206.537128 
L 89.90125 221.312099 
z
" style="fill:#ffffff;stroke:#999999;stroke-linejoin:miter;stroke-width:1.5;"/>
   </g>
   <g id="patch_10">
    <path clip-path="url(#peb2b74257b)" d="M 173.60125 222.871013 
L 177.78625 222.871013 
L 177.78625 180.303529 
L 173.60125 180.303529 
L 173.60125 222.871013 
z
" style="fill:#ffffff;stroke:#999999;stroke-linejoin:miter;stroke-width:1.5;"/>
   </g>
   <g id="patch_11">
    <path clip-path="url(#peb2b74257b)" d="M 257.30125 217.969278 
L 261.48625 217.969278 
L 261.48625 185.25761 
L 257.30125 185.25761 
L 257.30125 217.969278 
z
" style="fill:#ffffff;stroke:#999999;stroke-linejoin:miter;stroke-width:1.5;"/>
   </g>
   <g id="patch_12">
    <path clip-path="url(#peb2b74257b)" d="M 341.00125 202.254901 
L 345.18625 202.254901 
L 345.18625 158.550467 
L 341.00125 158.550467 
L 341.00125 202.254901 
z
" style="fill:#ffffff;stroke:#999999;stroke-linejoin:miter;stroke-width:1.5;"/>
   </g>
   <g id="line2d_14">
    <path clip-path="url(#peb2b74257b)" d="M 91.99375 221.312099 
L 91.99375 232.218997 
" style="fill:none;stroke:#999999;stroke-linecap:square;stroke-width:1.5;"/>
   </g>
   <g id="line2d_15">
    <path clip-path="url(#peb2b74257b)" d="M 91.99375 206.537128 
L 91.99375 185.178867 
" style="fill:none;stroke:#999999;stroke-linecap:square;stroke-width:1.5;"/>
   </g>
   <g id="line2d_16">
    <path clip-path="url(#peb2b74257b)" d="M 90.9475 232.218997 
L 93.04 232.218997 
" style="fill:none;stroke:#999999;stroke-linecap:square;stroke-width:1.5;"/>
   </g>
   <g id="line2d_17">
    <path clip-path="url(#peb2b74257b)" d="M 90.9475 185.178867 
L 93.04 185.178867 
" style="fill:none;stroke:#999999;stroke-linecap:square;stroke-width:1.5;"/>
   </g>
   <g id="line2d_18">
    <defs>
     <path d="M -0 3.535534 
L 2.12132 0 
L -0 -3.535534 
L -2.12132 -0 
z
" id="me4e9c925be" style="stroke:#999999;stroke-linejoin:miter;"/>
    </defs>
    <g clip-path="url(#peb2b74257b)">
     <use style="fill:#999999;stroke:#999999;stroke-linejoin:miter;" x="91.99375" xlink:href="#me4e9c925be" y="160.662429"/>
    </g>
   </g>
   <g id="line2d_19">
    <path clip-path="url(#peb2b74257b)" d="M 175.69375 222.871013 
L 175.69375 236.796411 
" style="fill:none;stroke:#999999;stroke-linecap:square;stroke-width:1.5;"/>
   </g>
   <g id="line2d_20">
    <path clip-path="url(#peb2b74257b)" d="M 175.69375 180.303529 
L 175.69375 144.338947 
" style="fill:none;stroke:#999999;stroke-linecap:square;stroke-width:1.5;"/>
   </g>
   <g id="line2d_21">
    <path clip-path="url(#peb2b74257b)" d="M 174.6475 236.796411 
L 176.74 236.796411 
" style="fill:none;stroke:#999999;stroke-linecap:square;stroke-width:1.5;"/>
   </g>
   <g id="line2d_22">
    <path clip-path="url(#peb2b74257b)" d="M 174.6475 144.338947 
L 176.74 144.338947 
" style="fill:none;stroke:#999999;stroke-linecap:square;stroke-width:1.5;"/>
   </g>
   <g id="line2d_23"/>
   <g id="line2d_24">
    <path clip-path="url(#peb2b74257b)" d="M 259.39375 217.969278 
L 259.39375 243.113439 
" style="fill:none;stroke:#999999;stroke-linecap:square;stroke-width:1.5;"/>
   </g>
   <g id="line2d_25">
    <path clip-path="url(#peb2b74257b)" d="M 259.39375 185.25761 
L 259.39375 165.115106 
" style="fill:none;stroke:#999999;stroke-linecap:square;stroke-width:1.5;"/>
   </g>
   <g id="line2d_26">
    <path clip-path="url(#peb2b74257b)" d="M 258.3475 243.113439 
L 260.44 243.113439 
" style="fill:none;stroke:#999999;stroke-linecap:square;stroke-width:1.5;"/>
   </g>
   <g id="line2d_27">
    <path clip-path="url(#peb2b74257b)" d="M 258.3475 165.115106 
L 260.44 165.115106 
" style="fill:none;stroke:#999999;stroke-linecap:square;stroke-width:1.5;"/>
   </g>
   <g id="line2d_28">
    <g clip-path="url(#peb2b74257b)">
     <use style="fill:#999999;stroke:#999999;stroke-linejoin:miter;" x="259.39375" xlink:href="#me4e9c925be" y="119.314811"/>
    </g>
   </g>
   <g id="line2d_29">
    <path clip-path="url(#peb2b74257b)" d="M 343.09375 202.254901 
L 343.09375 234.408155 
" style="fill:none;stroke:#999999;stroke-linecap:square;stroke-width:1.5;"/>
   </g>
   <g id="line2d_30">
    <path clip-path="url(#peb2b74257b)" d="M 343.09375 158.550467 
L 343.09375 122.464122 
" style="fill:none;stroke:#999999;stroke-linecap:square;stroke-width:1.5;"/>
   </g>
   <g id="line2d_31">
    <path clip-path="url(#peb2b74257b)" d="M 342.0475 234.408155 
L 344.14 234.408155 
" style="fill:none;stroke:#999999;stroke-linecap:square;stroke-width:1.5;"/>
   </g>
   <g id="line2d_32">
    <path clip-path="url(#peb2b74257b)" d="M 342.0475 122.464122 
L 344.14 122.464122 
" style="fill:none;stroke:#999999;stroke-linecap:square;stroke-width:1.5;"/>
   </g>
   <g id="line2d_33"/>
   <g id="line2d_34">
    <path clip-path="url(#peb2b74257b)" d="M 89.90125 215.001066 
L 94.08625 215.001066 
" style="fill:none;stroke:#999999;stroke-linecap:square;stroke-width:1.5;"/>
   </g>
   <g id="line2d_35">
    <path clip-path="url(#peb2b74257b)" d="M 173.60125 208.400467 
L 177.78625 208.400467 
" style="fill:none;stroke:#999999;stroke-linecap:square;stroke-width:1.5;"/>
   </g>
   <g id="line2d_36">
    <path clip-path="url(#peb2b74257b)" d="M 257.30125 208.89697 
L 261.48625 208.89697 
" style="fill:none;stroke:#999999;stroke-linecap:square;stroke-width:1.5;"/>
   </g>
   <g id="line2d_37">
    <path clip-path="url(#peb2b74257b)" d="M 341.00125 179.847105 
L 345.18625 179.847105 
" style="fill:none;stroke:#999999;stroke-linecap:square;stroke-width:1.5;"/>
   </g>
   <g id="legend_1">
    <g id="patch_13">
     <path d="M 57.14375 124.5285 
L 103.646875 124.5285 
Q 105.646875 124.5285 105.646875 122.5285 
L 105.646875 79.494125 
Q 105.646875 77.494125 103.646875 77.494125 
L 57.14375 77.494125 
Q 55.14375 77.494125 55.14375 79.494125 
L 55.14375 122.5285 
Q 55.14375 124.5285 57.14375 124.5285 
z
" style="fill:#ffffff;opacity:0.8;stroke:#cccccc;stroke-linejoin:miter;"/>
    </g>
    <g id="text_16">
     <!-- Group -->
     <g transform="translate(65.175781 89.092563)scale(0.1 -0.1)">
      <defs>
       <path d="M 41.109375 46.296875 
Q 39.59375 47.171875 37.8125 47.578125 
Q 36.03125 48 33.890625 48 
Q 26.265625 48 22.1875 43.046875 
Q 18.109375 38.09375 18.109375 28.8125 
L 18.109375 0 
L 9.078125 0 
L 9.078125 54.6875 
L 18.109375 54.6875 
L 18.109375 46.1875 
Q 20.953125 51.171875 25.484375 53.578125 
Q 30.03125 56 36.53125 56 
Q 37.453125 56 38.578125 55.875 
Q 39.703125 55.765625 41.0625 55.515625 
z
" id="DejaVuSans-114"/>
       <path d="M 8.5 21.578125 
L 8.5 54.6875 
L 17.484375 54.6875 
L 17.484375 21.921875 
Q 17.484375 14.15625 20.5 10.265625 
Q 23.53125 6.390625 29.59375 6.390625 
Q 36.859375 6.390625 41.078125 11.03125 
Q 45.3125 15.671875 45.3125 23.6875 
L 45.3125 54.6875 
L 54.296875 54.6875 
L 54.296875 0 
L 45.3125 0 
L 45.3125 8.40625 
Q 42.046875 3.421875 37.71875 1 
Q 33.40625 -1.421875 27.6875 -1.421875 
Q 18.265625 -1.421875 13.375 4.4375 
Q 8.5 10.296875 8.5 21.578125 
z
M 31.109375 56 
z
" id="DejaVuSans-117"/>
      </defs>
      <use xlink:href="#DejaVuSans-71"/>
      <use x="77.490234" xlink:href="#DejaVuSans-114"/>
      <use x="116.353516" xlink:href="#DejaVuSans-111"/>
      <use x="177.535156" xlink:href="#DejaVuSans-117"/>
      <use x="240.914062" xlink:href="#DejaVuSans-112"/>
     </g>
    </g>
    <g id="patch_14">
     <path d="M 59.14375 103.770688 
L 79.14375 103.770688 
L 79.14375 96.770688 
L 59.14375 96.770688 
z
" style="fill:#f61067;fill-opacity:0.3;stroke:#f61067;stroke-linejoin:miter;stroke-opacity:0.3;"/>
    </g>
    <g id="text_17">
     <!-- HC -->
     <g transform="translate(87.14375 103.770688)scale(0.1 -0.1)">
      <use xlink:href="#DejaVuSans-72"/>
      <use x="75.195312" xlink:href="#DejaVuSans-67"/>
     </g>
    </g>
    <g id="patch_15">
     <path d="M 59.14375 118.448813 
L 63.14375 118.448813 
L 63.14375 111.448813 
L 59.14375 111.448813 
z
" style="fill:#049b9a;fill-opacity:0.3;stroke:#049b9a;stroke-linejoin:miter;stroke-opacity:0.3;"/>
    </g>
    <g id="patch_16">
     <path d="M 67.14375 118.448813 
L 71.14375 118.448813 
L 71.14375 111.448813 
L 67.14375 111.448813 
z
" style="fill:#012d98;fill-opacity:0.3;stroke:#012d98;stroke-linejoin:miter;stroke-opacity:0.3;"/>
    </g>
    <g id="patch_17">
     <path d="M 75.14375 118.448813 
L 79.14375 118.448813 
L 79.14375 111.448813 
L 75.14375 111.448813 
z
" style="fill:#a76dfe;fill-opacity:0.3;stroke:#a76dfe;stroke-linejoin:miter;stroke-opacity:0.3;"/>
    </g>
    <g id="text_18">
     <!-- ST -->
     <g transform="translate(87.14375 118.448813)scale(0.1 -0.1)">
      <defs>
       <path d="M 53.515625 70.515625 
L 53.515625 60.890625 
Q 47.90625 63.578125 42.921875 64.890625 
Q 37.9375 66.21875 33.296875 66.21875 
Q 25.25 66.21875 20.875 63.09375 
Q 16.5 59.96875 16.5 54.203125 
Q 16.5 49.359375 19.40625 46.890625 
Q 22.3125 44.4375 30.421875 42.921875 
L 36.375 41.703125 
Q 47.40625 39.59375 52.65625 34.296875 
Q 57.90625 29 57.90625 20.125 
Q 57.90625 9.515625 50.796875 4.046875 
Q 43.703125 -1.421875 29.984375 -1.421875 
Q 24.8125 -1.421875 18.96875 -0.25 
Q 13.140625 0.921875 6.890625 3.21875 
L 6.890625 13.375 
Q 12.890625 10.015625 18.65625 8.296875 
Q 24.421875 6.59375 29.984375 6.59375 
Q 38.421875 6.59375 43.015625 9.90625 
Q 47.609375 13.234375 47.609375 19.390625 
Q 47.609375 24.75 44.3125 27.78125 
Q 41.015625 30.8125 33.5 32.328125 
L 27.484375 33.5 
Q 16.453125 35.6875 11.515625 40.375 
Q 6.59375 45.0625 6.59375 53.421875 
Q 6.59375 63.09375 13.40625 68.65625 
Q 20.21875 74.21875 32.171875 74.21875 
Q 37.3125 74.21875 42.625 73.28125 
Q 47.953125 72.359375 53.515625 70.515625 
z
" id="DejaVuSans-83"/>
      </defs>
      <use xlink:href="#DejaVuSans-83"/>
      <use x="63.476562" xlink:href="#DejaVuSans-84"/>
     </g>
    </g>
   </g>
  </g>
 </g>
 <defs>
  <clipPath id="peb2b74257b">
   <rect height="217.44" width="334.8" x="50.14375" y="72.494125"/>
  </clipPath>
 </defs>
</svg>
